<?xml version="1.0" standalone="no"?>
<!DOCTYPE svg PUBLIC "-//W3C//DTD SVG 20010904//EN"
 "http://www.w3.org/TR/2001/REC-SVG-20010904/DTD/svg10.dtd">
<svg version="1.0" xmlns="http://www.w3.org/2000/svg"
 width="474.000000pt" height="474.000000pt" viewBox="0 0 474.000000 474.000000"
 preserveAspectRatio="xMidYMid meet">
<metadata>
Created by potrace 1.11, written by Peter Selinger 2001-2013
</metadata>
<g transform="translate(0.000000,474.000000) scale(0.100000,-0.100000)"
fill="#000000" stroke="none">
<path d="M2169 4726 c-2 -2 -35 -6 -74 -10 -123 -12 -430 -80 -470 -104 -5 -4
-15 -7 -22 -8 -6 -1 -49 -16 -95 -34 -230 -88 -461 -224 -652 -383 -85 -70
-196 -174 -196 -182 0 -3 -17 -22 -38 -43 -20 -20 -58 -62 -82 -92 -25 -30
-48 -56 -52 -58 -5 -2 -8 -8 -8 -13 0 -8 -20 -35 -48 -65 -7 -8 -10 -14 -5
-14 4 0 3 -4 -4 -8 -36 -23 -198 -324 -258 -479 -46 -118 -49 -128 -52 -138
-1 -5 -11 -41 -23 -80 -18 -61 -43 -171 -56 -242 -2 -13 -7 -35 -11 -50 -3
-16 -8 -165 -9 -333 -2 -228 0 -324 11 -380 7 -41 16 -91 20 -110 3 -19 11
-53 16 -75 6 -22 13 -48 15 -57 2 -10 6 -26 8 -36 20 -90 143 -402 159 -402 6
0 8 -3 4 -6 -6 -6 4 -26 82 -166 14 -27 29 -48 34 -48 4 0 7 -5 7 -11 0 -9 36
-65 73 -114 4 -5 24 -32 45 -60 20 -27 49 -62 64 -77 15 -16 25 -28 23 -28
-13 0 111 -126 220 -224 28 -25 60 -55 72 -66 12 -11 26 -20 32 -20 5 0 11 -7
15 -15 3 -8 10 -15 16 -15 6 0 18 -6 25 -13 34 -30 50 -41 142 -98 54 -33 105
-64 113 -70 35 -22 174 -89 186 -89 7 0 14 -3 16 -7 9 -21 390 -145 483 -158
11 -1 36 -5 55 -9 66 -11 95 -16 150 -23 74 -9 440 -10 515 -1 116 15 140 18
170 25 17 4 35 7 40 8 51 5 212 49 312 85 28 10 54 16 57 13 3 -4 6 -1 6 5 0
7 3 11 8 10 7 -1 10 0 104 38 190 78 467 255 616 393 18 17 38 31 43 31 6 0 7
5 4 10 -3 6 -2 10 3 10 15 0 159 152 227 239 22 28 52 66 67 84 15 17 28 37
28 44 0 6 4 13 8 15 11 4 72 94 72 106 0 6 3 12 8 14 4 2 15 17 24 33 19 35
112 218 113 225 1 3 11 26 22 51 43 94 111 310 127 401 2 15 7 31 9 35 3 5 8
32 11 62 4 29 8 57 11 61 10 17 20 189 20 360 0 163 -4 225 -20 345 -3 26 -25
140 -39 200 -18 86 -84 285 -117 360 -13 28 -22 53 -21 58 1 4 -3 7 -10 7 -6
0 -9 3 -5 6 16 16 -208 392 -278 467 -14 15 -23 27 -20 27 4 0 -6 13 -22 29
-15 15 -37 40 -48 54 -37 47 -116 127 -126 127 -5 0 -9 7 -9 15 0 8 -3 15 -7
15 -5 0 -26 17 -49 38 -23 20 -56 50 -75 67 -50 44 -248 183 -270 190 -10 4
-19 11 -19 16 0 6 -4 8 -9 5 -5 -4 -11 -2 -13 2 -5 13 -135 82 -142 75 -3 -3
-6 -1 -6 5 0 6 -10 14 -22 18 -13 4 -52 20 -88 37 -79 37 -250 98 -250 90 0
-3 -6 -1 -12 5 -11 8 -34 15 -93 28 -5 1 -40 9 -76 18 -99 23 -119 27 -169 31
-25 3 -56 7 -70 11 -26 6 -465 16 -471 10z"/>
</g>
</svg>
